<?xml version="1.0" standalone="no"?><!DOCTYPE svg PUBLIC "-//W3C//DTD SVG 1.1//EN" "http://www.w3.org/Graphics/SVG/1.1/DTD/svg11.dtd"><svg t="1554301557230" class="icon" style="" viewBox="0 0 1024 1024" version="1.1" xmlns="http://www.w3.org/2000/svg" p-id="2925" xmlns:xlink="http://www.w3.org/1999/xlink" width="128" height="128"><defs><style type="text/css"></style></defs><path d="M148.410098 106.99178l282.175661 0c22.26305 0 40.311101 18.048051 40.311101 40.311101l0 282.175661c0 22.26305-18.048051 40.311101-40.311101 40.311101L148.410098 469.789643c-22.26305 0-40.311101-18.048051-40.311101-40.311101L108.098997 147.301857C108.098997 125.038808 126.147048 106.99178 148.410098 106.99178z" p-id="2926"></path><path d="M147.555637 553.47767 429.731298 553.47767c22.26305 0 40.311101 18.048051 40.311101 40.311101l0 282.175661c0 22.26305-18.048051 40.311101-40.311101 40.311101L147.555637 916.275533c-22.26305 0-40.311101-18.048051-40.311101-40.311101L107.244536 593.788771C107.24556 571.525722 125.292588 553.47767 147.555637 553.47767z" p-id="2927"></path><path d="M593.926918 106.99178l282.175661 0c22.26305 0 40.311101 18.048051 40.311101 40.311101l0 282.175661c0 22.26305-18.048051 40.311101-40.311101 40.311101L593.926918 469.789643c-22.26305 0-40.311101-18.048051-40.311101-40.311101L553.615816 147.301857C553.615816 125.038808 571.663868 106.99178 593.926918 106.99178z" p-id="2928"></path><path d="M730.220047 920.501788 623.926162 920.501788c-40.925085 0-74.220399-33.387411-74.220399-74.42506L549.705763 623.991654c0-41.037648 33.387411-74.424037 74.42506-74.424037l222.085074 0c41.037648 0 74.424037 33.226752 74.424037 74.066903L920.639934 737.868237c0 10.243295-8.30413 18.547425-18.547425 18.547425s-18.547425-8.30413-18.547425-18.547425L883.545084 623.63452c0-20.387329-16.746406-36.973076-37.33021-36.973076L624.130823 586.661444c-20.584827 0-37.331233 16.746406-37.331233 37.33021l0 222.085074c0 20.584827 16.654308 37.331233 37.126572 37.331233l106.293885 0c10.243295 0 18.547425 8.30413 18.547425 18.547425C748.766448 912.198681 740.463342 920.501788 730.220047 920.501788z" p-id="2929"></path></svg>