<?xml version="1.0" standalone="no"?><!DOCTYPE svg PUBLIC "-//W3C//DTD SVG 1.1//EN" "http://www.w3.org/Graphics/SVG/1.1/DTD/svg11.dtd"><svg t="1554866607445" class="icon" style="" viewBox="0 0 1024 1024" version="1.1" xmlns="http://www.w3.org/2000/svg" p-id="3466" xmlns:xlink="http://www.w3.org/1999/xlink" width="16" height="16"><defs><style type="text/css"></style></defs><path d="M426.666667 810.666667 554.666667 810.666667 554.666667 938.666667 426.666667 938.666667 426.666667 810.666667M512 85.333333C653.226667 85.333333 768 200.106667 768 341.333333 753.92 398.08 739.413333 455.253333 704 497.92 668.586667 540.586667 611.413333 568.746667 583.253333 604.586667 554.666667 640 554.666667 682.666667 554.666667 725.333333L426.666667 725.333333C426.666667 654.08 426.666667 593.92 455.253333 551.253333 483.413333 508.586667 540.586667 483.413333 576 455.253333 611.413333 426.666667 625.92 384 640 341.333333 640 270.506667 582.826667 213.333333 512 213.333333 441.173333 213.333333 384 270.506667 384 341.333333L256 341.333333C256 200.106667 370.773333 85.333333 512 85.333333Z" p-id="3467"></path></svg>