<?xml version="1.0" standalone="no"?><!DOCTYPE svg PUBLIC "-//W3C//DTD SVG 1.1//EN" "http://www.w3.org/Graphics/SVG/1.1/DTD/svg11.dtd"><svg t="1554866297529" class="icon" style="" viewBox="0 0 1024 1024" version="1.1" xmlns="http://www.w3.org/2000/svg" p-id="1978" xmlns:xlink="http://www.w3.org/1999/xlink" width="16" height="16"><defs><style type="text/css"></style></defs><path d="M469.333333 298.666667 469.333333 516.693333 670.293333 635.733333 704 581.12 533.333333 480 533.333333 298.666667M533.333333 85.333333C382.72 85.333333 252.16 167.253333 182.186667 288.853333L85.333333 192 85.333333 469.333333 362.666667 469.333333 245.333333 352C296.96 244.48 405.333333 170.666667 533.333333 170.666667 709.973333 170.666667 853.333333 314.026667 853.333333 490.666667 853.333333 667.306667 709.973333 810.666667 533.333333 810.666667 393.813333 810.666667 276.053333 721.493333 232.106667 597.333333L142.506667 597.333333C189.44 769.28 346.026667 896 533.333333 896 756.906667 896 938.666667 714.666667 938.666667 490.666667 938.666667 266.666667 757.333333 85.333333 533.333333 85.333333Z" p-id="1979" fill="#303133"></path></svg>