<?xml version="1.0" standalone="no"?><!DOCTYPE svg PUBLIC "-//W3C//DTD SVG 1.1//EN" "http://www.w3.org/Graphics/SVG/1.1/DTD/svg11.dtd"><svg t="1560857166934" class="icon" style="" viewBox="0 0 1024 1024" version="1.1" xmlns="http://www.w3.org/2000/svg" p-id="7451" xmlns:xlink="http://www.w3.org/1999/xlink" width="128" height="128"><defs><style type="text/css"></style></defs><path d="M170.666667 170.666667m85.333333 0l0 0q85.333333 0 85.333333 85.333333l0 0q0 85.333333-85.333333 85.333333l0 0q-85.333333 0-85.333333-85.333333l0 0q0-85.333333 85.333333-85.333333Z" fill="#889AA4" opacity=".3" p-id="7452"></path><path d="M170.666667 426.666667m85.333333 0l0 0q85.333333 0 85.333333 85.333333l0 0q0 85.333333-85.333333 85.333333l0 0q-85.333333 0-85.333333-85.333333l0 0q0-85.333333 85.333333-85.333333Z" fill="#889AA4" p-id="7453"></path><path d="M426.666667 170.666667m85.333333 0l0 0q85.333333 0 85.333333 85.333333l0 0q0 85.333333-85.333333 85.333333l0 0q-85.333333 0-85.333333-85.333333l0 0q0-85.333333 85.333333-85.333333Z" fill="#889AA4" p-id="7454"></path><path d="M426.666667 426.666667m85.333333 0l0 0q85.333333 0 85.333333 85.333333l0 0q0 85.333333-85.333333 85.333333l0 0q-85.333333 0-85.333333-85.333333l0 0q0-85.333333 85.333333-85.333333Z" fill="#889AA4" p-id="7455"></path><path d="M682.666667 170.666667m85.333333 0l0 0q85.333333 0 85.333333 85.333333l0 0q0 85.333333-85.333333 85.333333l0 0q-85.333333 0-85.333333-85.333333l0 0q0-85.333333 85.333333-85.333333Z" fill="#889AA4" p-id="7456"></path><path d="M682.666667 426.666667m85.333333 0l0 0q85.333333 0 85.333333 85.333333l0 0q0 85.333333-85.333333 85.333333l0 0q-85.333333 0-85.333333-85.333333l0 0q0-85.333333 85.333333-85.333333Z" fill="#889AA4" p-id="7457"></path><path d="M170.666667 682.666667m85.333333 0l0 0q85.333333 0 85.333333 85.333333l0 0q0 85.333333-85.333333 85.333333l0 0q-85.333333 0-85.333333-85.333333l0 0q0-85.333333 85.333333-85.333333Z" fill="#889AA4" p-id="7458"></path><path d="M426.666667 682.666667m85.333333 0l0 0q85.333333 0 85.333333 85.333333l0 0q0 85.333333-85.333333 85.333333l0 0q-85.333333 0-85.333333-85.333333l0 0q0-85.333333 85.333333-85.333333Z" fill="#889AA4" p-id="7459"></path><path d="M682.666667 682.666667m85.333333 0l0 0q85.333333 0 85.333333 85.333333l0 0q0 85.333333-85.333333 85.333333l0 0q-85.333333 0-85.333333-85.333333l0 0q0-85.333333 85.333333-85.333333Z" fill="#889AA4" p-id="7460"></path></svg>