<?xml version="1.0" standalone="no"?><!DOCTYPE svg PUBLIC "-//W3C//DTD SVG 1.1//EN" "http://www.w3.org/Graphics/SVG/1.1/DTD/svg11.dtd"><svg t="1559061792646" class="icon" style="" viewBox="0 0 1024 1024" version="1.1" xmlns="http://www.w3.org/2000/svg" p-id="1183" xmlns:xlink="http://www.w3.org/1999/xlink" width="128" height="128"><defs><style type="text/css"></style></defs><path d="M1010.23806 110.072267 970.865072 149.235947 874.351253 52.722128 913.46842 13.279371C931.282778-4.534987 960.167155-4.534987 977.981513 13.279371L1010.23806 45.559174C1028.052418 63.373532 1028.052418 92.257909 1010.23806 110.072267ZM379.177216 612.176694 412.061684 645.084418 908.026436 149.119666 939.422498 180.538984 418.875792 698.41121 325.850424 698.41121 325.850424 605.362585 843.094729 84.211215 875.118712 116.235198 379.177216 612.176694ZM46.774318 233.284368 46.774318 977.487316 790.977266 977.487316 790.977266 396.078763 837.48995 349.566078 837.48995 977.487316 837.48995 1000.743658 837.48995 1024 46.774318 1024 0.261634 1024 0.261634 977.487316 0.261634 186.771684 46.774318 186.771684 674.695555 186.771684 628.182871 233.284368 46.774318 233.284368Z" p-id="1184"></path></svg>