<?xml version="1.0" standalone="no"?><!DOCTYPE svg PUBLIC "-//W3C//DTD SVG 1.1//EN" "http://www.w3.org/Graphics/SVG/1.1/DTD/svg11.dtd"><svg t="1561418717553" class="icon" viewBox="0 0 1024 1024" version="1.1" xmlns="http://www.w3.org/2000/svg" p-id="2067" xmlns:xlink="http://www.w3.org/1999/xlink" width="128" height="128"><defs><style type="text/css"></style></defs><path d="M255.936 844.352c18.048 31.296 60.8 55.616 96.256 55.616l319.616 0c36.16 0 78.592-24.96 96.32-55.616l159.808-276.8c18.048-31.296 17.664-80.448 0-111.104l-159.808-276.864c-18.048-31.296-60.8-55.552-96.32-55.552L352.192 124.032c-36.16 0-78.592 24.896-96.256 55.552L96.128 456.448c-18.112 31.296-17.728 80.448 0 111.104L255.936 844.352zM444.032 320c0-35.328 28.416-64 64-64 35.328 0 64 28.416 64 64l0 192c0 35.392-28.416 64-64 64-35.328 0-64-28.352-64-64L444.032 320zM508.032 640c35.328 0 64 28.416 64 64 0 35.392-28.416 64-64 64-35.328 0-64-28.416-64-64C444.032 668.608 472.448 640 508.032 640z" p-id="2068" fill="#BFCBD9"></path></svg>