<?xml version="1.0" standalone="no"?><!DOCTYPE svg PUBLIC "-//W3C//DTD SVG 1.1//EN" "http://www.w3.org/Graphics/SVG/1.1/DTD/svg11.dtd"><svg t="1560858079388" class="icon" style="" viewBox="0 0 1024 1024" version="1.1" xmlns="http://www.w3.org/2000/svg" p-id="8587" xmlns:xlink="http://www.w3.org/1999/xlink" width="128" height="128"><defs><style type="text/css"></style></defs><path d="M41.353846 876.307692l86.646154-320.984615h366.276923c9.846154 0 19.692308-9.846154 19.692308-19.692308v-39.384615c0-9.846154-9.846154-19.692308-19.692308-19.692308H128l-84.676923-315.076923C41.353846 157.538462 39.384615 151.630769 39.384615 145.723077c0-13.784615 13.784615-27.569231 29.538462-25.6 3.938462 0 5.907692 1.969231 9.846154 1.969231l886.153846 364.307692c11.815385 3.938462 19.692308 15.753846 19.692308 27.569231s-7.876923 21.661538-17.723077 25.6L78.769231 913.723077c-3.938462 1.969231-7.876923 1.969231-11.815385 1.969231-15.753846-1.969231-27.569231-13.784615-27.569231-29.538462 0-3.938462 0-5.907692 1.969231-9.846154z" p-id="8588"></path></svg>